<svg xmlns="http://www.w3.org/2000/svg" width="49" height="65.333" viewBox="0 0 49 65.333">
  <path id="Icon_awesome-bluetooth" data-name="Icon awesome-bluetooth" d="M35.5,21.833l-5.474,5.474-.038-10.974,5.513,5.5M29.991,49.88l5.5-5.5-5.474-5.474L29.991,49.88ZM51.25,33.1c0,26.235-9.175,32.233-23.62,32.233S2.25,59.336,2.25,33.1,12.892,0,27.337,0,51.25,6.878,51.25,33.1Zm-20.225,0L41.157,21.795,25.193,4.658V27.231l-9.417-9.417-3.445,3.433L24.16,33.113,12.331,44.98l3.433,3.433L25.18,39l.293,21.693,16.257-16.27Z" transform="translate(-2.25)" fill="#fff"/>
</svg>
