<svg xmlns="http://www.w3.org/2000/svg" width="69.8" height="50.764" viewBox="0 0 69.8 50.764">
  <path id="Icon_material-devices-other" data-name="Icon material-devices-other" d="M7.845,12.345H64.955V6H7.845A6.364,6.364,0,0,0,1.5,12.345V50.418a6.364,6.364,0,0,0,6.345,6.345H20.536V50.418H7.845ZM39.573,31.382H26.882v5.647a9.4,9.4,0,0,0,0,14.087v5.647H39.573V51.116a9.4,9.4,0,0,0,0-14.087Zm-6.345,17.45a4.759,4.759,0,1,1,4.759-4.759A4.753,4.753,0,0,1,33.227,48.832Zm34.9-30.141H49.091a3.412,3.412,0,0,0-3.173,3.173V53.591a3.412,3.412,0,0,0,3.173,3.173H68.127A3.412,3.412,0,0,0,71.3,53.591V21.864A3.412,3.412,0,0,0,68.127,18.691ZM64.955,50.418H52.264V25.036H64.955Z" transform="translate(-1.5 -6)" fill="#fff9f9"/>
</svg>
