<svg xmlns="http://www.w3.org/2000/svg" width="66.304" height="58.016" viewBox="0 0 66.304 58.016">
  <path id="Icon_awesome-connectdevelop" data-name="Icon awesome-connectdevelop" d="M65.844,28.32,59.79,17.83a1.945,1.945,0,0,0,.227-.874,1.847,1.847,0,0,0-1.781-1.813l-6.7-11.59a1.889,1.889,0,0,0,.129-.583A1.841,1.841,0,0,0,48.394,1.8H35.508a1.765,1.765,0,0,0-2.784,0H19.9a1.841,1.841,0,0,0-3.27,1.166,1.7,1.7,0,0,0,.13.583L10,15.305a1.809,1.809,0,0,0-1.1,1.651c0,.065.032.129.032.194L2.486,28.288A1.842,1.842,0,0,0,.964,30.1a1.869,1.869,0,0,0,1.457,1.813L9.09,43.439a1.692,1.692,0,0,0-.1.583A1.807,1.807,0,0,0,10.45,45.8L16.7,56.648a2.092,2.092,0,0,0-.129.647,1.845,1.845,0,0,0,1.845,1.845,1.788,1.788,0,0,0,1.392-.647H32.724a1.82,1.82,0,0,0,2.784,0h12.95a1.808,1.808,0,0,0,1.327.583,1.845,1.845,0,0,0,1.845-1.845,1.341,1.341,0,0,0-.1-.518L57.783,45.8a1.807,1.807,0,0,0,1.457-1.781,1.832,1.832,0,0,0-.1-.583l6.637-11.526A1.844,1.844,0,0,0,67.269,30.1a1.812,1.812,0,0,0-1.425-1.781ZM17.864,53.67l-5.277-9.162h5.277Zm0-10.133H12.587a1.989,1.989,0,0,0-.162-.388l5.439-5.73Zm0-7.543-6.086,6.443a3.025,3.025,0,0,0-.486-.194L4.558,30.586a1.26,1.26,0,0,0,.065-.486,1.71,1.71,0,0,0-.032-.421L10.871,18.8a2.04,2.04,0,0,0,.939-.324l6.054,6.281V35.993Zm0-12.367L12.328,17.9a1.77,1.77,0,0,0,.259-.939c0-.032-.032-.1-.032-.13l5.309-1.91v8.709Zm0-9.745-5.277,1.91,5.277-9.13Zm39.465,4.727.1.162-4.274,20.2-7.705-8.126L57.3,18.575l.032.032Zm-22.76,23.5,1.392,1.425H33.21Zm-.032-1.36L24.469,30.424l9.615-10.2L44.12,30.813Zm.647.712,9.583-9.939,8.158,8.612-.712,3.4H37.224l-2.04-2.072ZM48.912,4.557a1.624,1.624,0,0,0,.421.162l6.993,12.173v.065a1.769,1.769,0,0,0,.259.939L44.8,30.133,34.764,19.546Zm-1.1-.259L34.084,18.834l-6.9-7.284L47.293,4.3Zm-14.925,0a1.72,1.72,0,0,0,2.461,0h9.065L26.476,10.773,20.325,4.3H32.886Zm-14.051.68.129-.259q.164-.042.324-.1l6.184,6.507-6.637,2.4Zm0,9.583,7.349-2.655,7.22,7.64L23.789,29.712l-4.953-5.083Zm0,11.2,4.4,4.565-4.4,4.63V25.762Zm0,10.619,5.083-5.374,10,10.392L31.85,43.536H18.835V36.381Zm.842,19.587a1.739,1.739,0,0,0-.712-.421l-.129-.194V44.508H30.911L19.839,55.968h-.162Zm15.7,0a1.8,1.8,0,0,0-2.525,0H21.2L32.271,44.508H36.9L47.973,55.968H35.379Zm14.5-1.425-.518.907a1.627,1.627,0,0,0-.421.162l-10.781-11.1H51.988l-2.1,10.036Zm1.554-2.687,1.554-7.349h2.655Zm4.209-8.32h-2.46l.55-2.558,2.072,2.2a1.2,1.2,0,0,0-.162.356Zm8-12.982-6.7,11.687a3.266,3.266,0,0,0-.486.227l-2.493-2.655L58.139,20l5.536,9.583a2.46,2.46,0,0,0-.1.518,2.185,2.185,0,0,0,.065.453Z" transform="translate(-0.964 -1.125)" fill="#fff"/>
</svg>
