<svg xmlns="http://www.w3.org/2000/svg" width="63.27" height="65.333" viewBox="0 0 63.27 65.333">
  <g id="Icon_ionic-ios-information-circle-outline" data-name="Icon ionic-ios-information-circle-outline" transform="translate(-3.375 -3.375)">
    <path id="Path_13" data-name="Path 13" d="M16.552,13.834a3.237,3.237,0,1,1,3.22,3.141A3.144,3.144,0,0,1,16.552,13.834Zm.22,5.607h6V42.072h-6Z" transform="translate(15.223 9.047)" fill="#fff"/>
    <path id="Path_14" data-name="Path 14" d="M35.01,7.772a26.767,26.767,0,0,1,19.361,8.277,28.942,28.942,0,0,1,0,39.985,26.784,26.784,0,0,1-38.722,0,28.942,28.942,0,0,1,0-39.985A26.767,26.767,0,0,1,35.01,7.772m0-4.4C17.535,3.375,3.375,18,3.375,36.042S17.535,68.708,35.01,68.708,66.645,54.087,66.645,36.042,52.485,3.375,35.01,3.375Z" transform="translate(0)" fill="#fff"/>
  </g>
</svg>
