<svg xmlns="http://www.w3.org/2000/svg" width="65" height="66" viewBox="0 0 65 66">
  <g id="Group_3" data-name="Group 3" transform="translate(-228 -408)">
    <path id="Icon_awesome-check" data-name="Icon awesome-check" d="M14.049,34.817.606,21.374a2.068,2.068,0,0,1,0-2.925l2.925-2.925a2.068,2.068,0,0,1,2.925,0l9.056,9.056,19.4-19.4a2.068,2.068,0,0,1,2.925,0l2.925,2.925a2.068,2.068,0,0,1,0,2.925L16.974,34.817A2.068,2.068,0,0,1,14.049,34.817Z" transform="translate(240 421.423)" fill="#fff"/>
    <g id="Ellipse_2" data-name="Ellipse 2" transform="translate(228 408)" fill="none" stroke="#fff" stroke-width="3">
      <ellipse cx="32.5" cy="33" rx="32.5" ry="33" stroke="none"/>
      <ellipse cx="32.5" cy="33" rx="31" ry="31.5" fill="none"/>
    </g>
  </g>
</svg>
